<svg width="18" height="18" viewBox="0 0 18 18" fill="none" xmlns="http://www.w3.org/2000/svg">
<path d="M17.5 13.8659C17.5 15.8663 15.8532 17.5 13.8069 17.5C11.7605 17.5 10.1137 15.8663 10.1137 13.8659C10.1137 11.8655 11.7605 10.2318 13.8069 10.2318C15.8532 10.2318 17.5 11.8655 17.5 13.8659ZM7.76722 0.796297C7.98496 0.401235 8.56664 0.401233 8.78438 0.796299L12.1557 6.91314C12.3562 7.27698 12.0956 7.74086 11.6471 7.74086H4.9045C4.45597 7.74086 4.19539 7.27698 4.39593 6.91314L7.76722 0.796297ZM0.5 11.1814C0.5 10.8776 0.751705 10.6193 1.07718 10.6193H6.52289C6.84837 10.6193 7.10007 10.8776 7.10007 11.1814V16.5504C7.10007 16.8541 6.84837 17.1124 6.52289 17.1124H1.07718C0.751704 17.1124 0.5 16.8541 0.5 16.5504V11.1814Z" stroke="#808080"/>
</svg>
